@startuml
'https://plantuml.com/class-diagram

abstract class AbstractList
abstract AbstractCollection
interface List
interface Collection

List <|-- AbstractList
Collection <|-- AbstractCollection

Collection <|- List
AbstractCollection <|- AbstractList
AbstractList <|-- ArrayList

class Person{
    String name;
    public void setName(String name)
}
class Father{
    private coreMember coreMember
    public void command(Person p)

}
class coreMember{
    private killer killer;
    public void toKill(Person person)
}

kill o- coreMember
coreMember o- Father

class killer{
    public void kill(Person person)
}

enum TimeUnit {
DAYS
HOURS
MINUTES
}

@enduml