@startuml
'https://plantuml.com/class-diagram

abstract class AbstractList
abstract AbstractCollection
interface List
interface Collection

List <|-- AbstractList
Collection <|-- AbstractCollection

Collection <|- List
AbstractCollection <|- AbstractList
AbstractList <|-- ArrayList

class Person{
    private Integer id;
    private String name;
}

interface ITV{
}
class Haixin{}
Haixin <|.. ITV


class student extends Person{
}
'Person <|-- student

class IDCard{
    private Integer id;
}
Department <.. PersonServiceBean

class Department{

}
class PersonServiceBean{
    private PersonDao personDao
    save(Person p)
    getId()
    modify(     )
}

class PersonDao{}

PersonServiceBean o- PersonDao



@enduml